# Blender 4.1.1
# www.blender.org
o Würfel.010
v -28.528841 -26.301682 28.666599
v -28.528841 16.774120 28.666599
v -28.528841 -26.301682 26.666599
v -28.528841 16.774120 26.666599
v 27.351458 -26.301682 28.666599
v 27.351458 16.774120 28.666599
v 27.351458 -26.301682 26.666599
v 27.351458 16.774120 26.666599
v -19.404902 6.496675 26.666599
v -11.924901 6.496675 26.666599
v -19.404902 -21.103334 26.666599
v -11.924901 -21.103334 26.666599
v -11.924901 6.496675 28.666599
v -19.404902 -21.103334 28.666599
v -19.404902 6.496675 28.666599
v -11.924901 -21.103334 28.666599
v 10.519704 -21.103334 26.666599
v 17.999704 -21.103334 26.666599
v 10.519704 6.496676 26.666599
v 17.999704 6.496676 26.666599
v 10.519704 6.496676 28.666599
v 10.519704 -21.103334 28.666599
v 17.999704 -21.103334 28.666599
v 17.999704 6.496676 28.666599
v -5.771369 -25.766855 26.666599
v 5.108634 -25.766855 26.666599
v 5.108634 -21.103334 26.666599
v -5.771369 -21.103334 26.666599
v -5.771369 -7.366844 26.666599
v 5.108634 -7.366844 26.666599
v -5.771369 -7.366844 28.666599
v -5.771369 -21.103334 28.666599
v 5.108634 -7.366844 28.666599
v 5.108634 -21.103334 28.666599
v -5.771369 -25.766855 28.666599
v 5.108634 -25.766855 28.666599
vn -1.0000 -0.0000 -0.0000
vn -0.0000 -0.0000 -1.0000
vn 1.0000 -0.0000 -0.0000
vn -0.0000 -0.0000 1.0000
vn -0.0000 -1.0000 -0.0000
vn -0.0000 1.0000 -0.0000
vt 0.625000 0.000000
vt 0.375000 0.250000
vt 0.375000 0.000000
vt 0.375000 0.500000
vt 0.378104 0.400489
vt 0.565353 0.324284
vt 0.565353 0.424697
vt 0.484892 0.400489
vt 0.565352 0.458162
vt 0.625000 0.500000
vt 0.565353 0.290819
vt 0.405170 0.290819
vt 0.375000 0.750000
vt 0.565353 0.959181
vt 0.375000 1.000000
vt 0.405170 0.959181
vt 0.565353 0.791838
vt 0.405170 0.791838
vt 0.565353 0.825303
vt 0.565353 0.925716
vt 0.484893 0.898187
vt 0.378104 0.898187
vt 0.125000 0.750000
vt 0.125000 0.500000
vt 0.875000 0.500000
vt 0.625000 0.750000
vt 0.550075 0.000000
vt 0.457482 0.000000
vt 0.550075 0.500000
vt 0.457482 0.500000
vt 0.576851 0.000000
vt 0.484258 0.000000
vt 0.375000 0.436637
vt 0.576851 0.500000
vt 0.484258 0.500000
vt 0.375000 0.813363
vt 0.625000 0.250000
vt 0.405170 0.424697
vt 0.405170 0.458162
vt 0.405170 0.324284
vt 0.405170 0.351813
vt 0.378104 0.351813
vt 0.405170 0.400489
vt 0.484893 0.351813
vt 0.625000 1.000000
vt 0.484893 0.849511
vt 0.405170 0.849511
vt 0.405170 0.825303
vt 0.405170 0.925717
vt 0.405170 0.898187
vt 0.378104 0.849511
vt 0.875000 0.750000
s 0
f 2/1/1 3/2/1 1/3/1
f 7/4/2 3/2/2 26/5/2
f 10/6/2 19/7/2 30/8/2
f 7/4/2 20/9/2 8/10/2
f 3/2/2 9/11/2 11/12/2
f 8/10/3 5/13/3 7/4/3
f 15/14/4 1/15/4 14/16/4
f 5/13/4 24/17/4 23/18/4
f 21/19/4 13/20/4 31/21/4
f 1/15/4 5/13/4 35/22/4
f 7/4/5 1/23/5 3/24/5
f 4/25/6 6/26/6 8/10/6
f 10/27/5 15/28/5 9/27/5
f 9/2/3 14/4/3 11/4/3
f 12/29/6 14/30/6 16/30/6
f 12/13/1 13/15/1 10/15/1
f 20/27/5 21/28/5 19/27/5
f 19/2/3 22/4/3 17/4/3
f 18/29/6 22/30/6 23/30/6
f 20/15/1 23/13/1 24/15/1
f 30/31/5 31/32/5 29/31/5
f 28/33/3 31/2/3 32/33/3
f 26/34/6 35/35/6 36/35/6
f 27/36/1 36/13/1 34/36/1
f 2/1/1 4/37/1 3/2/1
f 17/38/2 18/39/2 7/4/2
f 3/2/2 11/12/2 12/40/2
f 12/40/2 28/41/2 25/42/2
f 26/5/2 27/43/2 17/38/2
f 3/2/2 12/40/2 25/42/2
f 26/5/2 17/38/2 7/4/2
f 3/2/2 25/42/2 26/5/2
f 28/41/2 12/40/2 10/6/2
f 10/6/2 9/11/2 4/37/2
f 4/37/2 8/10/2 20/9/2
f 19/7/2 17/38/2 27/43/2
f 4/37/2 20/9/2 19/7/2
f 29/44/2 28/41/2 10/6/2
f 10/6/2 4/37/2 19/7/2
f 19/7/2 27/43/2 30/8/2
f 30/8/2 29/44/2 10/6/2
f 7/4/2 18/39/2 20/9/2
f 3/2/2 4/37/2 9/11/2
f 8/10/3 6/26/3 5/13/3
f 15/14/4 2/45/4 1/15/4
f 5/13/4 6/26/4 24/17/4
f 33/46/4 34/47/4 22/48/4
f 21/19/4 24/17/4 6/26/4
f 33/46/4 22/48/4 21/19/4
f 16/49/4 32/50/4 31/21/4
f 31/21/4 33/46/4 21/19/4
f 21/19/4 6/26/4 2/45/4
f 2/45/4 15/14/4 13/20/4
f 13/20/4 16/49/4 31/21/4
f 21/19/4 2/45/4 13/20/4
f 16/49/4 14/16/4 1/15/4
f 5/13/4 23/18/4 22/48/4
f 22/48/4 34/47/4 36/51/4
f 35/22/4 32/50/4 16/49/4
f 5/13/4 22/48/4 36/51/4
f 35/22/4 16/49/4 1/15/4
f 5/13/4 36/51/4 35/22/4
f 7/4/5 5/13/5 1/23/5
f 4/25/6 2/52/6 6/26/6
f 10/27/5 13/28/5 15/28/5
f 9/2/3 15/2/3 14/4/3
f 12/29/6 11/29/6 14/30/6
f 12/13/1 16/13/1 13/15/1
f 20/27/5 24/28/5 21/28/5
f 19/2/3 21/2/3 22/4/3
f 18/29/6 17/29/6 22/30/6
f 20/15/1 18/13/1 23/13/1
f 30/31/5 33/32/5 31/32/5
f 35/4/3 25/4/3 28/33/3
f 28/33/3 29/2/3 31/2/3
f 32/33/3 35/4/3 28/33/3
f 26/34/6 25/34/6 35/35/6
f 34/36/1 33/15/1 30/15/1
f 27/36/1 26/13/1 36/13/1
f 34/36/1 30/15/1 27/36/1
