# Blender v2.91.0 OBJ File: ''
# www.blender.org
o Würfel.013
v 1.009550 41.774117 28.761259
v -0.990450 -1.301685 28.761253
v 1.009550 -1.301685 28.761253
v -0.990452 28.299618 18.912701
v -0.990452 6.899616 18.912697
v -0.990454 41.774124 -27.119040
v -0.990454 -1.301678 -27.119045
v -0.990452 28.299623 -17.131001
v -0.990452 6.899618 7.232697
v -0.990452 28.299622 -5.451001
v -0.990452 6.899620 -5.451004
v 1.009546 -1.301678 -27.119045
v 1.009548 28.299618 18.912701
v 1.009548 6.899616 18.912697
v 1.009546 41.774124 -27.119040
v 1.009548 6.899622 -17.131004
v 1.009548 6.899618 7.232697
v 1.009548 28.299622 -5.451001
v 1.009548 28.299618 7.232700
v -0.990450 41.774117 28.761259
v -0.990452 28.299618 7.232700
v 1.009548 28.299623 -17.131001
v -0.990452 6.899622 -17.131004
v 1.009548 6.899620 -5.451004
vt 0.625000 0.000000
vt 0.375000 0.250000
vt 0.375000 0.000000
vt 0.546798 0.294061
vt 0.422598 0.294061
vt 0.625000 0.500000
vt 0.375000 0.500000
vt 0.546798 0.455315
vt 0.422598 0.346316
vt 0.546798 0.403060
vt 0.422598 0.403060
vt 0.375000 0.750000
vt 0.546798 0.955939
vt 0.375000 1.000000
vt 0.422598 0.955939
vt 0.625000 0.750000
vt 0.422598 0.794685
vt 0.422598 0.903685
vt 0.546798 0.846940
vt 0.546798 0.903685
vt 0.125000 0.750000
vt 0.125000 0.500000
vt 0.875000 0.500000
vt 0.467875 0.000000
vt 0.545825 0.000000
vt 0.467875 0.000000
vt 0.375000 0.500000
vt 0.375000 0.250000
vt 0.375000 0.250000
vt 0.467875 0.500000
vt 0.545825 0.500000
vt 0.545825 0.500000
vt 0.375000 1.000000
vt 0.375000 0.750000
vt 0.375000 0.750000
vt 0.467875 0.000000
vt 0.545825 0.000000
vt 0.467875 0.000000
vt 0.375000 0.250000
vt 0.375000 0.500000
vt 0.375000 0.250000
vt 0.467875 0.500000
vt 0.545825 0.500000
vt 0.545825 0.500000
vt 0.375000 1.000000
vt 0.375000 0.750000
vt 0.375000 0.750000
vt 0.625000 0.250000
vt 0.546798 0.346316
vt 0.422598 0.455315
vt 0.625000 1.000000
vt 0.422598 0.846940
vt 0.546798 0.794685
vt 0.875000 0.750000
vt 0.545825 0.000000
vt 0.375000 0.500000
vt 0.467875 0.500000
vt 0.375000 1.000000
vt 0.545825 0.000000
vt 0.375000 0.500000
vt 0.467875 0.500000
vt 0.375000 1.000000
vn 0.0000 -0.0000 1.0000
vn -1.0000 -0.0000 0.0000
vn 0.0000 0.0000 -1.0000
vn 1.0000 -0.0000 -0.0000
vn 0.0000 -1.0000 -0.0000
vn 0.0000 1.0000 0.0000
s 1
f 1/1/1 2/2/1 3/3/1
f 2/2/2 4/4/2 5/5/2
f 6/6/2 7/7/2 8/8/2
f 9/9/2 10/10/2 11/11/2
f 6/6/3 12/12/3 7/7/3
f 13/13/4 3/14/4 14/15/4
f 12/12/4 15/16/4 16/17/4
f 17/18/4 18/19/4 19/20/4
f 7/7/5 3/21/5 2/22/5
f 20/23/6 15/16/6 6/6/6
f 21/24/5 13/25/5 4/26/5
f 9/27/1 19/28/1 21/29/1
f 9/30/6 14/31/6 17/32/6
f 4/33/3 14/34/3 5/35/3
f 8/36/5 18/37/5 10/38/5
f 8/39/1 16/40/1 22/41/1
f 23/42/6 24/43/6 16/44/6
f 10/45/3 24/46/3 11/47/3
f 1/1/1 20/48/1 2/2/1
f 2/2/2 20/48/2 4/4/2
f 4/4/2 20/48/2 6/6/2
f 7/7/2 2/2/2 5/5/2
f 7/7/2 5/5/2 9/9/2
f 21/49/2 4/4/2 6/6/2
f 10/10/2 21/49/2 6/6/2
f 7/7/2 9/9/2 11/11/2
f 7/7/2 11/11/2 23/50/2
f 8/8/2 10/10/2 6/6/2
f 7/7/2 23/50/2 8/8/2
f 9/9/2 21/49/2 10/10/2
f 6/6/3 15/16/3 12/12/3
f 13/13/4 1/51/4 3/14/4
f 17/18/4 14/15/4 3/14/4
f 15/16/4 1/51/4 13/13/4
f 15/16/4 13/13/4 19/20/4
f 17/18/4 3/14/4 12/12/4
f 24/52/4 17/18/4 12/12/4
f 15/16/4 19/20/4 18/19/4
f 15/16/4 18/19/4 22/53/4
f 16/17/4 24/52/4 12/12/4
f 15/16/4 22/53/4 16/17/4
f 17/18/4 24/52/4 18/19/4
f 7/7/5 12/12/5 3/21/5
f 20/23/6 1/54/6 15/16/6
f 21/24/5 19/55/5 13/25/5
f 9/27/1 17/56/1 19/28/1
f 9/30/6 5/57/6 14/31/6
f 4/33/3 13/58/3 14/34/3
f 8/36/5 22/59/5 18/37/5
f 8/39/1 23/60/1 16/40/1
f 23/42/6 11/61/6 24/43/6
f 10/45/3 18/62/3 24/46/3
