# Blender 4.1.1
# www.blender.org
o Würfel.013
v -26.490450 -26.301682 28.761257
v -26.490450 16.774120 28.761257
v -28.490450 -26.301682 28.761257
v -28.490450 16.774120 28.761257
v -26.490454 -26.301682 -27.119041
v -26.490454 16.774120 -27.119041
v -28.490454 -26.301682 -27.119041
v -28.490454 16.774120 -27.119041
v -28.490452 -18.100380 18.912701
v -28.490452 3.299620 18.912701
v -28.490452 3.299620 7.232700
v -28.490452 -18.100380 7.232700
v -26.490452 3.299620 7.232700
v -26.490452 -18.100380 18.912701
v -26.490452 3.299620 18.912701
v -26.490452 -18.100380 7.232700
v -28.490452 -18.100380 -5.451001
v -28.490452 -18.100380 -17.131001
v -28.490452 3.299620 -5.451001
v -28.490452 3.299620 -17.131001
v -26.490452 3.299620 -5.451001
v -26.490452 -18.100380 -5.451001
v -26.490452 -18.100380 -17.131001
v -26.490452 3.299620 -17.131001
vn -0.0000 -0.0000 1.0000
vn -1.0000 -0.0000 -0.0000
vn -0.0000 -0.0000 -1.0000
vn 1.0000 -0.0000 -0.0000
vn -0.0000 -1.0000 -0.0000
vn -0.0000 1.0000 -0.0000
vt 0.625000 0.000000
vt 0.375000 0.250000
vt 0.375000 0.000000
vt 0.546798 0.294061
vt 0.422598 0.294061
vt 0.625000 0.500000
vt 0.375000 0.500000
vt 0.546798 0.455315
vt 0.422598 0.346316
vt 0.546798 0.403060
vt 0.422598 0.403060
vt 0.375000 0.750000
vt 0.546798 0.955939
vt 0.375000 1.000000
vt 0.422598 0.955939
vt 0.625000 0.750000
vt 0.422598 0.794685
vt 0.422598 0.903685
vt 0.546798 0.846940
vt 0.546798 0.903685
vt 0.125000 0.750000
vt 0.125000 0.500000
vt 0.875000 0.500000
vt 0.467875 0.000000
vt 0.545825 0.000000
vt 0.467875 0.500000
vt 0.545825 0.500000
vt 0.625000 0.250000
vt 0.546798 0.346316
vt 0.422598 0.455315
vt 0.625000 1.000000
vt 0.422598 0.846940
vt 0.546798 0.794685
vt 0.875000 0.750000
s 0
f 2/1/1 3/2/1 1/3/1
f 3/2/2 10/4/2 9/5/2
f 8/6/2 7/7/2 20/8/2
f 12/9/2 19/10/2 17/11/2
f 8/6/3 5/12/3 7/7/3
f 15/13/4 1/14/4 14/15/4
f 5/12/4 6/16/4 23/17/4
f 16/18/4 21/19/4 13/20/4
f 7/7/5 1/21/5 3/22/5
f 4/23/6 6/16/6 8/6/6
f 11/24/5 15/25/5 10/24/5
f 12/7/1 13/2/1 11/2/1
f 12/26/6 14/27/6 16/27/6
f 10/14/3 14/12/3 9/12/3
f 20/24/5 21/25/5 19/24/5
f 20/2/1 23/7/1 24/2/1
f 18/26/6 22/27/6 23/27/6
f 19/14/3 22/12/3 17/12/3
f 2/1/1 4/28/1 3/2/1
f 3/2/2 4/28/2 10/4/2
f 10/4/2 4/28/2 8/6/2
f 7/7/2 3/2/2 9/5/2
f 7/7/2 9/5/2 12/9/2
f 11/29/2 10/4/2 8/6/2
f 19/10/2 11/29/2 8/6/2
f 7/7/2 12/9/2 17/11/2
f 7/7/2 17/11/2 18/30/2
f 20/8/2 19/10/2 8/6/2
f 7/7/2 18/30/2 20/8/2
f 12/9/2 11/29/2 19/10/2
f 8/6/3 6/16/3 5/12/3
f 15/13/4 2/31/4 1/14/4
f 16/18/4 14/15/4 1/14/4
f 6/16/4 2/31/4 15/13/4
f 6/16/4 15/13/4 13/20/4
f 16/18/4 1/14/4 5/12/4
f 22/32/4 16/18/4 5/12/4
f 6/16/4 13/20/4 21/19/4
f 6/16/4 21/19/4 24/33/4
f 23/17/4 22/32/4 5/12/4
f 6/16/4 24/33/4 23/17/4
f 16/18/4 22/32/4 21/19/4
f 7/7/5 5/12/5 1/21/5
f 4/23/6 2/34/6 6/16/6
f 11/24/5 13/25/5 15/25/5
f 12/7/1 16/7/1 13/2/1
f 12/26/6 9/26/6 14/27/6
f 10/14/3 15/14/3 14/12/3
f 20/24/5 24/25/5 21/25/5
f 20/2/1 18/7/1 23/7/1
f 18/26/6 17/26/6 22/27/6
f 19/14/3 21/14/3 22/12/3
