# Blender v2.91.0 OBJ File: ''
# www.blender.org
o roof_Würfel.004
v -32.463806 -7.075893 32.192413
v -32.463806 -10.402004 -30.704285
v -32.463806 -10.402016 32.192413
v -32.463806 -7.075878 -30.704281
v 30.991091 -10.402004 -30.704285
v 30.991091 -7.075878 -30.704281
v 30.991091 -10.402016 32.192413
v 30.991091 -7.075893 32.192413
v 25.098349 -7.075893 26.351511
v -26.571058 -2.948292 26.351511
v -26.571058 -7.075893 26.351511
v -26.571058 -7.075882 -24.863375
v 25.098349 -7.075882 -24.863375
v 20.443499 -2.948284 -20.249474
v 20.443499 1.249912 21.737610
v 20.443499 -2.948292 21.737610
v 25.098349 -2.948284 -24.863375
v 25.098349 -2.948292 26.351511
v -26.571058 -2.948284 -24.863375
v -21.916212 -2.948284 -20.249474
v -21.916212 -2.948292 21.737610
v 16.768503 1.249912 18.094940
v -18.241213 5.244720 18.094944
v -18.241213 1.249912 18.094940
v -21.916212 1.249924 -20.249474
v -21.916212 1.249912 21.737610
v 20.443499 1.249924 -20.249474
v -18.241213 1.249920 -16.606804
v 16.768503 1.249920 -16.606804
v -18.241213 5.244732 -16.606800
v 16.768503 5.244720 18.094944
v 16.768503 5.244732 -16.606800
vt 0.000000 0.961932
vt 0.446632 0.985223
vt 0.000000 0.985223
vt 0.450596 0.961932
vt 0.000000 0.938642
vt 0.450596 0.938642
vt 0.897228 1.000000
vt 0.450596 0.976710
vt 0.897228 0.976710
vt 0.901192 0.976710
vt 0.450596 0.953419
vt 0.901192 0.953419
vt 0.000000 0.440418
vt 0.450596 0.000000
vt 0.450596 0.440418
vt 0.366907 0.880837
vt 0.000000 0.909739
vt 0.000000 0.880837
vt 0.041845 0.839937
vt 0.000000 0.440418
vt 0.041845 0.481318
vt 0.408751 0.839937
vt 0.000000 0.880837
vt 0.408751 0.481318
vt 0.450596 0.880837
vt 0.450596 0.440419
vt 0.997354 0.711418
vt 0.699202 0.740814
vt 0.699202 0.711418
vt 0.817503 0.895614
vt 0.450596 0.924516
vt 0.450596 0.895614
vt 0.363679 0.909739
vt 0.000000 0.938642
vt 0.000000 0.909739
vt 0.450596 0.953419
vt 0.814275 0.924517
vt 0.814275 0.953419
vt 0.483650 0.326312
vt 0.450596 0.000000
vt 0.483650 0.032308
vt 0.784449 0.326312
vt 0.450596 0.358619
vt 0.784449 0.032308
vt 0.817503 0.358620
vt 0.817503 0.000000
vt 0.947807 0.770211
vt 0.699202 0.798184
vt 0.699202 0.770211
vt 0.699202 0.770211
vt 0.997354 0.740815
vt 0.997354 0.770211
vt 1.000000 0.652624
vt 0.699202 0.682021
vt 0.699202 0.652624
vt 1.000000 0.682021
vt 0.699202 0.711418
vt 0.699202 0.682021
vt 0.476693 0.384126
vt 0.450596 0.652624
vt 0.450596 0.358620
vt 0.476692 0.627117
vt 0.751394 0.652624
vt 0.725298 0.627117
vt 0.751394 0.358620
vt 0.725298 0.384126
vt 0.450596 0.895614
vt 0.699202 0.652624
vt 0.699202 0.895614
vt 0.947807 0.798184
vt 0.699202 0.826157
vt 0.699202 0.798184
vt 0.945620 0.826157
vt 0.699202 0.854129
vt 0.699202 0.826157
vt 0.699202 0.882102
vt 0.945620 0.854129
vt 0.945620 0.882102
vt 0.446632 0.961932
vt 0.000000 0.961932
vt 0.450596 1.000000
vt 0.450596 0.976709
vt 0.000000 0.000000
vt 0.366907 0.909739
vt 0.997354 0.740815
vt 0.817503 0.924516
vt 0.363679 0.938642
vt 0.450596 0.924517
vt 0.947807 0.798184
vt 0.699202 0.740814
vt 1.000000 0.682021
vt 1.000000 0.711418
vt 0.450596 0.652624
vt 0.947807 0.826157
vt 0.945620 0.854129
vt 0.699202 0.854129
vn -1.0000 -0.0000 0.0000
vn 0.0000 0.0000 -1.0000
vn 1.0000 0.0000 0.0000
vn 0.0000 0.0000 1.0000
vn 0.0000 -1.0000 -0.0000
vn 0.0000 1.0000 0.0000
s 1
f 1/1/1 2/2/1 3/3/1
f 4/4/2 5/5/2 2/6/2
f 6/7/3 7/8/3 5/9/3
f 8/10/4 3/11/4 7/12/4
f 5/13/5 3/14/5 2/15/5
f 9/16/4 10/17/4 11/18/4
f 12/19/6 1/20/6 11/21/6
f 13/22/6 4/23/6 12/19/6
f 9/24/6 6/25/6 13/22/6
f 11/21/6 8/26/6 9/24/6
f 14/27/3 15/28/3 16/29/3
f 12/30/2 17/31/2 13/32/2
f 13/33/3 18/34/3 9/35/3
f 11/36/1 19/37/1 12/38/1
f 20/39/6 10/40/6 21/41/6
f 14/42/6 19/43/6 20/39/6
f 16/44/6 17/45/6 14/42/6
f 21/41/6 18/46/6 16/44/6
f 22/47/4 23/48/4 24/49/4
f 21/50/1 25/51/1 20/52/1
f 16/53/4 26/54/4 21/55/4
f 20/56/2 27/57/2 14/58/2
f 24/59/6 25/60/6 26/61/6
f 28/62/6 27/63/6 25/60/6
f 29/64/6 15/65/6 27/63/6
f 22/66/6 26/61/6 15/65/6
f 30/67/6 31/68/6 32/69/6
f 28/70/2 32/71/2 29/72/2
f 29/73/3 31/74/3 22/75/3
f 24/76/1 30/77/1 28/78/1
f 1/1/1 4/79/1 2/2/1
f 4/4/2 6/80/2 5/5/2
f 6/7/3 8/81/3 7/8/3
f 8/10/4 1/82/4 3/11/4
f 5/13/5 7/83/5 3/14/5
f 9/16/4 18/84/4 10/17/4
f 12/19/6 4/23/6 1/20/6
f 13/22/6 6/25/6 4/23/6
f 9/24/6 8/26/6 6/25/6
f 11/21/6 1/20/6 8/26/6
f 14/27/3 27/85/3 15/28/3
f 12/30/2 19/86/2 17/31/2
f 13/33/3 17/87/3 18/34/3
f 11/36/1 10/88/1 19/37/1
f 20/39/6 19/43/6 10/40/6
f 14/42/6 17/45/6 19/43/6
f 16/44/6 18/46/6 17/45/6
f 21/41/6 10/40/6 18/46/6
f 22/47/4 31/89/4 23/48/4
f 21/50/1 26/90/1 25/51/1
f 16/53/4 15/91/4 26/54/4
f 20/56/2 25/92/2 27/57/2
f 24/59/6 28/62/6 25/60/6
f 28/62/6 29/64/6 27/63/6
f 29/64/6 22/66/6 15/65/6
f 22/66/6 24/59/6 26/61/6
f 30/67/6 23/93/6 31/68/6
f 28/70/2 30/94/2 32/71/2
f 29/73/3 32/95/3 31/74/3
f 24/76/1 23/96/1 30/77/1
