# Blender 4.1.1
# www.blender.org
o Würfel.014
v 27.351458 -26.301682 28.666599
v 27.351458 16.774120 28.666599
v 27.351458 -26.301682 26.666599
v 27.351458 16.774120 26.666599
v 10.519704 -21.103334 26.666599
v 17.999704 -21.103334 26.666599
v 10.519704 6.496676 26.666599
v 17.999704 6.496676 26.666599
v 10.519704 6.496676 28.666599
v 10.519704 -21.103334 28.666599
v 17.999704 -21.103334 28.666599
v 17.999704 6.496676 28.666599
v 5.108634 -25.766855 26.666599
v 5.108634 -21.103334 26.666599
v 5.108634 -7.366844 26.666599
v 5.108634 -7.366844 28.666599
v 5.108634 -21.103334 28.666599
v 5.108634 -25.766855 28.666599
v 4.886160 -7.366844 27.666599
v 4.857220 4.703639 26.666599
v 4.967865 -26.034267 28.666599
v 5.037604 -26.301682 27.666599
v 4.818561 -7.366844 28.666599
v 4.722022 4.703639 28.666599
v 5.033325 -25.766855 27.666599
v 4.965726 -25.766855 28.666599
v 4.953759 -7.366844 26.666599
v 4.693081 16.774120 27.666599
v 4.625483 16.774120 28.666599
v 5.103064 -26.034267 26.666599
v 5.100924 -25.766855 26.666599
v 4.970006 -26.301682 28.666599
v 4.760680 16.774120 26.666599
v 5.105203 -26.301682 26.666599
vn -0.0000 -0.0000 -1.0000
vn 1.0000 -0.0000 -0.0000
vn -0.0000 -0.0000 1.0000
vn -0.0000 -1.0000 -0.0000
vn -0.0000 1.0000 -0.0000
vn -1.0000 -0.0000 -0.0000
vn -0.9977 -0.0080 -0.0674
vt 0.554946 0.399364
vt 0.565353 0.424697
vt 0.484892 0.400489
vt 0.375000 0.500000
vt 0.565352 0.458162
vt 0.625000 0.500000
vt 0.375000 0.750000
vt 0.565353 0.791838
vt 0.405170 0.791838
vt 0.405170 0.825303
vt 0.378104 0.849511
vt 0.274869 0.750000
vt 0.275171 0.625000
vt 0.550075 0.000000
vt 0.457482 0.000000
vt 0.375000 0.250000
vt 0.550075 0.500000
vt 0.457482 0.500000
vt 0.375000 1.000000
vt 0.576851 0.000000
vt 0.484258 0.000000
vt 0.530554 0.000000
vt 0.375000 0.813363
vt 0.565353 0.825303
vt 0.625000 0.750000
vt 0.554946 0.851241
vt 0.576851 0.500000
vt 0.530554 0.500000
vt 0.484258 0.500000
vt 0.726068 0.500000
vt 0.726370 0.625000
vt 0.405170 0.424697
vt 0.376552 0.400464
vt 0.378104 0.400489
vt 0.275474 0.500000
vt 0.484892 0.399796
vt 0.625000 0.398932
vt 0.405170 0.400489
vt 0.405170 0.458162
vt 0.378104 0.850150
vt 0.376552 0.850141
vt 0.375000 0.850131
vt 0.405170 0.849511
vt 0.484893 0.849511
vt 0.484893 0.850809
vt 0.625000 0.851673
vt 0.726673 0.750000
vt 0.375000 0.400474
vt 0.378104 0.400454
s 0
f 20/1/1 7/2/1 15/3/1
f 3/4/1 8/5/1 4/6/1
f 4/6/2 1/7/2 3/4/2
f 1/7/3 12/8/3 11/9/3
f 1/7/3 10/10/3 18/11/3
f 3/4/4 32/12/4 22/13/4
f 8/14/4 9/15/4 7/14/4
f 7/16/2 10/4/2 5/4/2
f 6/17/5 10/18/5 11/18/5
f 8/19/6 11/7/6 12/19/6
f 15/20/4 23/21/4 19/22/4
f 14/23/6 18/7/6 17/23/6
f 9/24/3 2/25/3 24/26/3
f 13/27/5 25/28/5 26/29/5
f 33/30/5 28/31/5 2/25/5
f 5/32/1 30/33/1 13/34/1
f 25/28/7 32/12/7 26/29/7
f 22/13/7 25/28/7 34/35/7
f 25/28/7 31/27/7 34/35/7
f 15/3/1 27/36/1 20/1/1
f 20/1/1 33/37/1 4/6/1
f 4/6/1 8/5/1 7/2/1
f 7/2/1 5/32/1 14/38/1
f 7/2/1 14/38/1 15/3/1
f 20/1/1 4/6/1 7/2/1
f 3/4/1 6/39/1 8/5/1
f 4/6/2 2/25/2 1/7/2
f 1/7/3 2/25/3 12/8/3
f 18/11/3 26/40/3 21/41/3
f 21/41/3 32/42/3 1/7/3
f 1/7/3 11/9/3 10/10/3
f 10/10/3 17/43/3 18/11/3
f 18/11/3 21/41/3 1/7/3
f 22/13/4 34/35/4 3/4/4
f 3/4/4 1/7/4 32/12/4
f 8/14/4 12/15/4 9/15/4
f 7/16/2 9/16/2 10/4/2
f 6/17/5 5/17/5 10/18/5
f 8/19/6 6/7/6 11/7/6
f 19/22/4 27/20/4 15/20/4
f 15/20/4 16/21/4 23/21/4
f 17/23/6 16/19/6 15/19/6
f 14/23/6 13/7/6 18/7/6
f 17/23/6 15/19/6 14/23/6
f 16/44/3 17/43/3 10/10/3
f 9/24/3 12/8/3 2/25/3
f 16/44/3 10/10/3 9/24/3
f 24/26/3 23/45/3 16/44/3
f 2/25/3 29/46/3 24/26/3
f 24/26/3 16/44/3 9/24/3
f 26/29/5 18/29/5 13/27/5
f 13/27/5 31/27/5 25/28/5
f 2/25/5 4/6/5 33/30/5
f 28/31/5 29/47/5 2/25/5
f 5/32/1 6/39/1 3/4/1
f 3/4/1 34/48/1 30/33/1
f 30/33/1 31/49/1 13/34/1
f 13/34/1 14/38/1 5/32/1
f 5/32/1 3/4/1 30/33/1
f 25/28/7 22/13/7 32/12/7
