# Blender v2.91.0 OBJ File: ''
# www.blender.org
o Würfel.010
v -11.762033 41.774117 1.011496
v -11.762033 -1.301685 -0.988510
v -11.762033 -1.301685 1.011490
v 4.841907 3.896662 -0.988510
v 10.995439 -0.766859 -0.988510
v -2.638094 31.496670 -0.988504
v -2.638094 3.896662 -0.988510
v -2.638094 31.496670 1.011496
v -2.638094 3.896662 1.011490
v 11.498182 29.703634 1.011494
v 4.841907 31.496670 1.011496
v 10.995439 17.633152 1.011492
v -11.762033 41.774117 -0.988504
v 11.498182 41.774117 1.011496
v 11.498182 41.774117 0.011496
v 4.841907 31.496670 -0.988504
v 4.841907 3.896662 1.011490
v 10.995439 3.896662 -0.988510
v 10.995439 3.896662 1.011490
v 11.498184 -0.766859 0.011490
v 10.995439 -0.766859 1.011490
v 11.498184 17.633152 -0.988508
v 11.498184 17.633152 0.011492
v 11.498182 29.703634 -0.988506
v 10.995439 17.633152 -0.988508
v 11.498182 -1.301685 -0.988510
v 11.498182 -1.301685 0.011490
v 11.498182 -1.034271 -0.988510
v 11.498184 -0.766859 -0.988510
v 11.498182 -1.034271 1.011490
v 11.498184 -0.766859 1.011490
v 11.498184 17.633152 1.011492
v 11.498182 41.774117 -0.988504
v 11.498182 -1.301685 1.011490
vt 0.625000 0.000000
vt 0.375000 0.250000
vt 0.375000 0.000000
vt 0.405170 0.324284
vt 0.378104 0.351813
vt 0.565353 0.290819
vt 0.405170 0.290819
vt 0.565353 0.959181
vt 0.375000 1.000000
vt 0.405170 0.959181
vt 0.554946 0.895937
vt 0.565353 0.925716
vt 0.484893 0.898187
vt 0.875000 0.500000
vt 0.770937 0.750000
vt 0.770937 0.625000
vt 0.550075 0.000000
vt 0.457482 0.000000
vt 0.550075 0.000000
vt 0.375000 0.250000
vt 0.375000 0.500000
vt 0.375000 0.500000
vt 0.550075 0.500000
vt 0.457482 0.500000
vt 0.457482 0.500000
vt 0.375000 0.750000
vt 0.375000 1.000000
vt 0.375000 1.000000
vt 0.375000 0.436637
vt 0.375000 0.250000
vt 0.375000 0.436637
vt 0.530554 0.500000
vt 0.576851 0.500000
vt 0.484258 0.500000
vt 0.576851 0.000000
vt 0.530554 0.000000
vt 0.484258 0.000000
vt 0.565353 0.324284
vt 0.554946 0.354063
vt 0.484893 0.351813
vt 0.405170 0.925717
vt 0.378104 0.898187
vt 0.229063 0.500000
vt 0.229063 0.625000
vt 0.125000 0.750000
vt 0.376552 0.354063
vt 0.378104 0.354063
vt 0.376552 0.895937
vt 0.378104 0.895937
vt 0.625000 0.250000
vt 0.375000 0.354063
vt 0.405170 0.351813
vt 0.625000 1.000000
vt 0.484893 0.895937
vt 0.625000 0.895937
vt 0.405170 0.898187
vt 0.770937 0.500000
vt 0.875000 0.750000
vt 0.457482 0.000000
vt 0.375000 0.250000
vt 0.550075 0.500000
vt 0.375000 0.750000
vt 0.375000 0.500000
vt 0.375000 0.500000
vt 0.375000 0.250000
vt 0.484258 0.500000
vt 0.576851 0.500000
vt 0.576851 0.000000
vt 0.484258 0.000000
vt 0.625000 0.354063
vt 0.484893 0.354063
vt 0.375000 0.895937
vt 0.125000 0.500000
vt 0.229063 0.750000
vn -1.0000 -0.0000 0.0000
vn -0.0000 0.0000 -1.0000
vn -0.0000 -0.0000 1.0000
vn 0.0000 1.0000 0.0000
vn 0.0000 -1.0000 0.0000
vn 1.0000 0.0000 0.0000
s 1
f 1/1/1 2/2/1 3/3/1
f 2/2/2 4/4/2 5/5/2
f 2/2/2 6/6/2 7/7/2
f 8/8/3 3/9/3 9/10/3
f 10/11/3 11/12/3 12/13/3
f 13/14/4 14/15/4 15/16/4
f 16/17/5 8/18/5 6/19/5
f 6/20/6 9/21/6 7/22/6
f 4/23/4 9/24/4 17/25/4
f 4/26/1 11/27/1 16/28/1
f 18/29/6 12/30/6 19/31/6
f 20/32/4 5/33/4 21/34/4
f 22/35/5 23/36/5 12/37/5
f 16/38/2 24/39/2 25/40/2
f 17/41/3 3/9/3 21/42/3
f 26/43/5 27/44/5 3/45/5
f 27/44/6 28/46/6 29/47/6
f 29/47/6 20/32/6 27/44/6
f 30/48/6 27/44/6 31/49/6
f 31/49/6 27/44/6 20/32/6
f 1/1/1 13/50/1 2/2/1
f 5/5/2 29/47/2 28/46/2
f 28/46/2 26/51/2 2/2/2
f 2/2/2 7/7/2 4/4/2
f 4/4/2 18/52/2 5/5/2
f 5/5/2 28/46/2 2/2/2
f 2/2/2 13/50/2 6/6/2
f 8/8/3 1/53/3 3/9/3
f 12/13/3 32/54/3 10/11/3
f 10/11/3 14/55/3 1/53/3
f 1/53/3 8/8/3 11/12/3
f 11/12/3 17/41/3 19/56/3
f 11/12/3 19/56/3 12/13/3
f 10/11/3 1/53/3 11/12/3
f 15/16/4 33/57/4 13/14/4
f 13/14/4 1/58/4 14/15/4
f 16/17/5 11/59/5 8/18/5
f 6/20/6 8/60/6 9/21/6
f 4/23/4 7/61/4 9/24/4
f 4/26/1 17/62/1 11/27/1
f 21/63/6 5/64/6 18/29/6
f 18/29/6 25/65/6 12/30/6
f 19/31/6 21/63/6 18/29/6
f 21/34/4 31/66/4 20/32/4
f 20/32/4 29/67/4 5/33/4
f 12/37/5 25/68/5 22/35/5
f 23/36/5 32/69/5 12/37/5
f 18/52/2 4/4/2 16/38/2
f 16/38/2 6/6/2 13/50/2
f 13/50/2 33/70/2 24/39/2
f 24/39/2 22/71/2 25/40/2
f 25/40/2 18/52/2 16/38/2
f 16/38/2 13/50/2 24/39/2
f 17/41/3 9/10/3 3/9/3
f 3/9/3 34/72/3 30/48/3
f 30/48/3 31/49/3 21/42/3
f 21/42/3 19/56/3 17/41/3
f 3/9/3 30/48/3 21/42/3
f 3/45/5 2/73/5 26/43/5
f 27/44/5 34/74/5 3/45/5
f 27/44/6 26/43/6 28/46/6
f 30/48/6 34/72/6 27/44/6
