# Blender v2.91.0 OBJ File: ''
# www.blender.org
o Würfel.014
v -11.647581 29.703634 -0.962433
v -5.985097 31.496672 -0.962431
v -11.396167 17.633152 -0.962435
v 10.846657 -1.301685 -0.962437
v 1.494904 31.496672 -0.962431
v 10.846657 41.774117 -0.962431
v 10.846657 -1.301685 1.037563
v 1.494904 31.496672 1.037569
v 1.494904 3.896662 1.037563
v -5.985097 3.896662 1.037563
v -11.396167 -0.766859 1.037563
v -11.534795 -1.301685 1.037563
v -11.467197 -1.301685 0.037563
v -5.985097 31.496672 1.037569
v -5.985097 3.896662 -0.962437
v 1.494904 3.896662 -0.962437
v -11.686239 17.633152 1.037565
v -11.618641 17.633152 0.037565
v -11.396167 3.896662 -0.962437
v -11.396167 3.896662 1.037563
v 10.846657 41.774117 1.037569
v -11.782779 29.703634 1.037567
v -11.396167 -0.766859 -0.962437
v -11.471476 -0.766859 0.037563
v -11.539075 -0.766859 1.037563
v -11.744121 41.774117 -0.962431
v -11.811720 41.774117 0.037569
v -11.401737 -1.034271 -0.962437
v -11.399597 -1.301685 -0.962437
v -11.403877 -0.766859 -0.962437
v -11.551042 17.633152 -0.962435
v -11.536936 -1.034271 1.037563
v -11.396167 17.633152 1.037565
v -11.879318 41.774117 1.037569
vt 0.554946 0.399364
vt 0.565353 0.424697
vt 0.484892 0.400489
vt 0.375000 0.500000
vt 0.565352 0.458162
vt 0.625000 0.500000
vt 0.375000 0.750000
vt 0.565353 0.791838
vt 0.405170 0.791838
vt 0.405170 0.825303
vt 0.378104 0.849511
vt 0.274869 0.750000
vt 0.275171 0.625000
vt 0.550075 0.000000
vt 0.457482 0.000000
vt 0.550075 0.000000
vt 0.375000 0.250000
vt 0.375000 0.500000
vt 0.375000 0.500000
vt 0.550075 0.500000
vt 0.457482 0.500000
vt 0.457482 0.500000
vt 0.375000 1.000000
vt 0.375000 0.750000
vt 0.375000 1.000000
vt 0.576851 0.000000
vt 0.484258 0.000000
vt 0.530554 0.000000
vt 0.375000 0.813363
vt 0.375000 0.750000
vt 0.375000 0.813363
vt 0.565353 0.825303
vt 0.625000 0.750000
vt 0.554946 0.851241
vt 0.576851 0.500000
vt 0.530554 0.500000
vt 0.484258 0.500000
vt 0.726068 0.500000
vt 0.726370 0.625000
vt 0.405170 0.424697
vt 0.376552 0.400464
vt 0.378104 0.400489
vt 0.275474 0.500000
vt 0.576851 0.500000
vt 0.484892 0.399796
vt 0.625000 0.398932
vt 0.405170 0.400489
vt 0.405170 0.458162
vt 0.378104 0.850150
vt 0.376552 0.850141
vt 0.375000 0.850131
vt 0.405170 0.849511
vt 0.457482 0.000000
vt 0.375000 0.250000
vt 0.550075 0.500000
vt 0.375000 0.750000
vt 0.576851 0.000000
vt 0.484258 0.000000
vt 0.375000 1.000000
vt 0.375000 1.000000
vt 0.375000 0.750000
vt 0.484893 0.849511
vt 0.484893 0.850809
vt 0.625000 0.851673
vt 0.484258 0.500000
vt 0.726673 0.750000
vt 0.375000 0.400474
vt 0.378104 0.400454
vn 0.0000 0.0000 -1.0000
vn 1.0000 -0.0000 0.0000
vn -0.0000 -0.0000 1.0000
vn 0.0000 -1.0000 0.0000
vn 0.0000 1.0000 0.0000
vn -1.0000 0.0000 0.0000
vn -0.9977 -0.0080 -0.0674
s 1
f 1/1/1 2/2/1 3/3/1
f 4/4/1 5/5/1 6/6/1
f 6/6/2 7/7/2 4/4/2
f 7/7/3 8/8/3 9/9/3
f 7/7/3 10/10/3 11/11/3
f 4/4/4 12/12/4 13/13/4
f 5/14/4 14/15/4 2/16/4
f 2/17/2 10/18/2 15/19/2
f 16/20/5 10/21/5 9/22/5
f 5/23/6 9/24/6 8/25/6
f 3/26/4 17/27/4 18/28/4
f 19/29/6 11/30/6 20/31/6
f 14/32/3 21/33/3 22/34/3
f 23/35/5 24/36/5 25/37/5
f 26/38/5 27/39/5 21/33/5
f 15/40/1 28/41/1 23/42/1
f 24/36/7 12/12/7 25/37/7
f 13/13/7 24/36/7 29/43/7
f 24/36/7 30/44/7 29/43/7
f 3/3/1 31/45/1 1/1/1
f 1/1/1 26/46/1 6/6/1
f 6/6/1 5/5/1 2/2/1
f 2/2/1 15/40/1 19/47/1
f 2/2/1 19/47/1 3/3/1
f 1/1/1 6/6/1 2/2/1
f 4/4/1 16/48/1 5/5/1
f 6/6/2 21/33/2 7/7/2
f 7/7/3 21/33/3 8/8/3
f 11/11/3 25/49/3 32/50/3
f 32/50/3 12/51/3 7/7/3
f 7/7/3 9/9/3 10/10/3
f 10/10/3 20/52/3 11/11/3
f 11/11/3 32/50/3 7/7/3
f 13/13/4 29/43/4 4/4/4
f 4/4/4 7/7/4 12/12/4
f 5/14/4 8/53/4 14/15/4
f 2/17/2 14/54/2 10/18/2
f 16/20/5 15/55/5 10/21/5
f 5/23/6 16/56/6 9/24/6
f 18/28/4 31/57/4 3/26/4
f 3/26/4 33/58/4 17/27/4
f 20/31/6 33/59/6 3/60/6
f 19/29/6 23/61/6 11/30/6
f 20/31/6 3/60/6 19/29/6
f 33/62/3 20/52/3 10/10/3
f 14/32/3 8/8/3 21/33/3
f 33/62/3 10/10/3 14/32/3
f 22/34/3 17/63/3 33/62/3
f 21/33/3 34/64/3 22/34/3
f 22/34/3 33/62/3 14/32/3
f 25/37/5 11/65/5 23/35/5
f 23/35/5 30/44/5 24/36/5
f 21/33/5 6/6/5 26/38/5
f 27/39/5 34/66/5 21/33/5
f 15/40/1 16/48/1 4/4/1
f 4/4/1 29/67/1 28/41/1
f 28/41/1 30/68/1 23/42/1
f 23/42/1 19/47/1 15/40/1
f 15/40/1 4/4/1 28/41/1
f 24/36/7 13/13/7 12/12/7
