# Blender 4.1.1
# www.blender.org
o Würfel
v -32.463806 14.597992 32.192402
v -26.571058 17.924114 26.351500
v -32.463806 14.597988 -30.704292
v -26.571058 17.924110 -24.863386
v 30.991091 14.597992 32.192402
v 25.098349 17.924114 26.351500
v 30.991091 14.597988 -30.704292
v 25.098349 17.924110 -24.863386
v -32.463806 17.924114 32.192402
v -32.463806 17.924110 -30.704292
v 30.991091 17.924110 -30.704292
v 30.991091 17.924114 32.192402
v -21.916212 22.051714 21.737598
v -21.916212 22.051710 -20.249485
v 20.443499 22.051710 -20.249485
v 20.443499 22.051714 21.737598
v -26.571058 22.051714 26.351500
v -26.571058 22.051710 -24.863386
v 25.098349 22.051710 -24.863386
v 25.098349 22.051714 26.351500
v -18.241213 26.249920 18.094929
v -18.241213 26.249916 -16.606815
v 16.768503 26.249916 -16.606815
v 16.768503 26.249920 18.094929
v -21.916212 26.249920 21.737598
v -21.916212 26.249916 -20.249485
v 20.443499 26.249916 -20.249485
v 20.443499 26.249920 21.737598
v -18.241213 30.244728 18.094929
v -18.241213 30.244724 -16.606815
v 16.768503 30.244724 -16.606815
v 16.768503 30.244728 18.094929
vn -1.0000 -0.0000 -0.0000
vn -0.0000 -0.0000 -1.0000
vn 1.0000 -0.0000 -0.0000
vn -0.0000 -0.0000 1.0000
vn -0.0000 -1.0000 -0.0000
vn -0.0000 1.0000 -0.0000
vt 0.000000 0.961932
vt 0.446632 0.985223
vt 0.000000 0.985223
vt 0.450596 0.961932
vt 0.000000 0.938642
vt 0.450596 0.938642
vt 0.897228 1.000000
vt 0.450596 0.976710
vt 0.897228 0.976710
vt 0.901192 0.976710
vt 0.450596 0.953419
vt 0.901192 0.953419
vt 0.000000 0.440418
vt 0.450596 0.000000
vt 0.450596 0.440418
vt 0.366907 0.880837
vt 0.000000 0.909739
vt 0.000000 0.880837
vt 0.041845 0.839937
vt 0.000000 0.440418
vt 0.041845 0.481318
vt 0.408751 0.839937
vt 0.000000 0.880837
vt 0.408751 0.481318
vt 0.450596 0.880837
vt 0.450596 0.440419
vt 0.997354 0.711418
vt 0.699202 0.740814
vt 0.699202 0.711418
vt 0.817503 0.895614
vt 0.450596 0.924516
vt 0.450596 0.895614
vt 0.363679 0.909739
vt 0.000000 0.938642
vt 0.000000 0.909739
vt 0.450596 0.953419
vt 0.814275 0.924517
vt 0.814275 0.953419
vt 0.483650 0.326312
vt 0.450596 0.000000
vt 0.483650 0.032308
vt 0.784449 0.326312
vt 0.450596 0.358619
vt 0.784449 0.032308
vt 0.817503 0.358620
vt 0.817503 0.000000
vt 0.947807 0.770211
vt 0.699202 0.798184
vt 0.699202 0.770211
vt 0.699202 0.770211
vt 0.997354 0.740815
vt 0.997354 0.770211
vt 1.000000 0.652624
vt 0.699202 0.682021
vt 0.699202 0.652624
vt 1.000000 0.682021
vt 0.699202 0.682021
vt 0.476693 0.384126
vt 0.450596 0.652624
vt 0.450596 0.358620
vt 0.476692 0.627117
vt 0.751394 0.652624
vt 0.725298 0.627117
vt 0.751394 0.358620
vt 0.725298 0.384126
vt 0.450596 0.895614
vt 0.699202 0.652624
vt 0.699202 0.895614
vt 0.947807 0.798184
vt 0.699202 0.826157
vt 0.699202 0.798184
vt 0.945620 0.826157
vt 0.699202 0.854129
vt 0.699202 0.882102
vt 0.945620 0.854129
vt 0.945620 0.882102
vt 0.446632 0.961932
vt 0.000000 0.961932
vt 0.450596 1.000000
vt 0.450596 0.976709
vt 0.000000 0.000000
vt 0.366907 0.909739
vt 0.817503 0.924516
vt 0.363679 0.938642
vt 0.450596 0.924517
vt 1.000000 0.682021
vt 1.000000 0.711418
vt 0.450596 0.652624
vt 0.947807 0.826157
vt 0.945620 0.854129
vt 0.699202 0.854129
s 0
f 9/1/1 3/2/1 1/3/1
f 10/4/2 7/5/2 3/6/2
f 11/7/3 5/8/3 7/9/3
f 12/10/4 1/11/4 5/12/4
f 7/13/5 1/14/5 3/15/5
f 6/16/4 17/17/4 2/18/4
f 4/19/6 9/20/6 2/21/6
f 8/22/6 10/23/6 4/19/6
f 6/24/6 11/25/6 8/22/6
f 2/21/6 12/26/6 6/24/6
f 15/27/3 28/28/3 16/29/3
f 4/30/2 19/31/2 8/32/2
f 8/33/3 20/34/3 6/35/3
f 2/36/1 18/37/1 4/38/1
f 14/39/6 17/40/6 13/41/6
f 15/42/6 18/43/6 14/39/6
f 16/44/6 19/45/6 15/42/6
f 13/41/6 20/46/6 16/44/6
f 24/47/4 29/48/4 21/49/4
f 13/50/1 26/51/1 14/52/1
f 16/53/4 25/54/4 13/55/4
f 14/56/2 27/29/2 15/57/2
f 21/58/6 26/59/6 25/60/6
f 22/61/6 27/62/6 26/59/6
f 23/63/6 28/64/6 27/62/6
f 24/65/6 25/60/6 28/64/6
f 30/66/6 32/67/6 31/68/6
f 22/69/2 31/70/2 23/71/2
f 23/72/3 32/73/3 24/70/3
f 21/74/1 30/75/1 22/76/1
f 9/1/1 10/77/1 3/2/1
f 10/4/2 11/78/2 7/5/2
f 11/7/3 12/79/3 5/8/3
f 12/10/4 9/80/4 1/11/4
f 7/13/5 5/81/5 1/14/5
f 6/16/4 20/82/4 17/17/4
f 4/19/6 10/23/6 9/20/6
f 8/22/6 11/25/6 10/23/6
f 6/24/6 12/26/6 11/25/6
f 2/21/6 9/20/6 12/26/6
f 15/27/3 27/51/3 28/28/3
f 4/30/2 18/83/2 19/31/2
f 8/33/3 19/84/3 20/34/3
f 2/36/1 17/85/1 18/37/1
f 14/39/6 18/43/6 17/40/6
f 15/42/6 19/45/6 18/43/6
f 16/44/6 20/46/6 19/45/6
f 13/41/6 17/40/6 20/46/6
f 24/47/4 32/69/4 29/48/4
f 13/50/1 25/28/1 26/51/1
f 16/53/4 28/86/4 25/54/4
f 14/56/2 26/87/2 27/29/2
f 21/58/6 22/61/6 26/59/6
f 22/61/6 23/63/6 27/62/6
f 23/63/6 24/65/6 28/64/6
f 24/65/6 21/58/6 25/60/6
f 30/66/6 29/88/6 32/67/6
f 22/69/2 30/89/2 31/70/2
f 23/72/3 31/90/3 32/73/3
f 21/74/1 29/91/1 30/75/1
