# Blender v2.91.0 OBJ File: ''
# www.blender.org
o Cube
v 1.000000 1.000000 -1.000000
v 1.000000 -1.000000 -1.000000
v 1.000000 1.000000 1.000000
v 1.000000 -1.000000 1.000000
v -1.000000 1.000000 -1.000000
v -1.000000 -1.000000 -1.000000
v -1.000000 1.000000 1.000000
v -1.000000 -1.000000 1.000000
vt 0 0 
vt 1 0
vt 0 1
vt 1 1
vn 0.0000 1.0000 0.0000
vn 0.0000 0.0000 1.0000
vn -1.0000 0.0000 0.0000
vn 0.0000 -1.0000 0.0000
vn 1.0000 0.0000 0.0000
vn 0.0000 0.0000 -1.0000
s off
f 5/1/1 3/4/1 1/2/1
f 3/2/2 8/3/2 4/4/2
f 7/2/3 6/3/3 8/4/3
f 2/4/4 8/1/4 6/3/4
f 1/2/5 4/3/5 2/4/5
f 5/2/6 2/3/6 6/4/6 
f 5/1/1 7/3/1 3/4/1
f 3/2/2 7/1/2 8/3/2
f 7/2/3 5/1/3 6/3/3
f 2/4/4 4/2/4 8/1/4
f 1/2/5 3/1/5 4/3/5
f 5/2/6 1/1/6 2/3/6
