# Blender 4.1.1
# www.blender.org
o Würfel.004
v 3.704098 7.740314 3.703519
v 4.417823 8.330585 4.417132
v -3.703521 7.740314 3.704100
v -4.417134 8.330585 4.417823
v 3.703520 7.740313 -3.704102
v 4.417132 8.330584 -4.417825
v -3.704101 7.740313 -3.703521
v -4.417825 8.330584 -4.417134
v -4.417134 7.740314 4.417823
v 4.417823 7.740314 4.417132
v -4.417825 7.740313 -4.417134
v 4.417132 7.740313 -4.417825
v -3.703521 8.016017 3.704100
v 3.704098 8.016017 3.703519
v -3.704101 8.016016 -3.703521
v 3.703520 8.016016 -3.704102
vn 0.0001 -0.0000 1.0000
vn -1.0000 -0.0000 0.0001
vn -0.0001 -0.0000 -1.0000
vn 1.0000 -0.0000 -0.0001
vn -0.0000 1.0000 -0.0000
vn -0.0000 -1.0000 -0.0000
vt 0.625000 0.000000
vt 0.375000 0.250000
vt 0.375000 0.000000
vt 0.625000 0.250000
vt 0.375000 0.500000
vt 0.625000 0.500000
vt 0.375000 0.750000
vt 0.625000 0.750000
vt 0.375000 1.000000
vt 0.354806 0.520194
vt 0.145194 0.520194
vt 0.875000 0.500000
vt 0.145194 0.729806
vt 0.125000 0.500000
vt 0.354806 0.729806
vt 0.125000 0.750000
vt 0.625000 1.000000
vt 0.875000 0.750000
s 0
f 2/1/1 9/2/1 10/3/1
f 4/4/2 11/5/2 9/2/2
f 8/6/3 12/7/3 11/5/3
f 6/8/4 10/9/4 12/7/4
f 7/10/4 13/11/4 3/11/4
f 4/12/5 6/8/5 8/6/5
f 1/13/6 9/14/6 3/11/6
f 3/11/6 11/5/6 7/10/6
f 7/10/6 12/7/6 5/15/6
f 5/15/6 10/16/6 1/13/6
f 15/10/6 14/13/6 13/11/6
f 5/15/1 15/10/1 7/10/1
f 3/11/3 14/13/3 1/13/3
f 1/13/2 16/15/2 5/15/2
f 2/1/1 4/4/1 9/2/1
f 4/4/2 8/6/2 11/5/2
f 8/6/3 6/8/3 12/7/3
f 6/8/4 2/17/4 10/9/4
f 7/10/4 15/10/4 13/11/4
f 4/12/5 2/18/5 6/8/5
f 1/13/6 10/16/6 9/14/6
f 3/11/6 9/14/6 11/5/6
f 7/10/6 11/5/6 12/7/6
f 5/15/6 12/7/6 10/16/6
f 15/10/6 16/15/6 14/13/6
f 5/15/1 16/15/1 15/10/1
f 3/11/3 13/11/3 14/13/3
f 1/13/2 14/13/2 16/15/2
