# Blender 4.1.1
# www.blender.org
mtllib house_roof.mtl
o Würfel
v -40.361580 -33.076942 32.837326
v -34.468834 -29.750820 26.996422
v -40.361580 -33.076942 -30.059370
v -34.468834 -29.750820 -24.218464
v 23.093315 -33.076942 32.837326
v 17.200571 -29.750820 26.996422
v 23.093315 -33.076942 -30.059370
v 17.200571 -29.750820 -24.218464
v -40.361580 -29.750820 32.837326
v -40.361580 -29.750820 -30.059370
v 23.093315 -29.750820 -30.059370
v 23.093315 -29.750820 32.837326
v -29.813988 -25.623220 22.382521
v -29.813988 -25.623220 -19.604563
v 12.545723 -25.623220 -19.604563
v 12.545723 -25.623220 22.382521
v -34.468834 -25.623220 26.996422
v -34.468834 -25.623220 -24.218464
v 17.200571 -25.623220 -24.218464
v 17.200571 -25.623220 26.996422
v -26.138990 -21.425014 18.739851
v -26.138990 -21.425014 -15.961893
v 8.870726 -21.425014 -15.961893
v 8.870726 -21.425014 18.739851
v -29.813988 -21.425014 22.382521
v -29.813988 -21.425014 -19.604563
v 12.545723 -21.425014 -19.604563
v 12.545723 -21.425014 22.382521
v -26.138990 -17.430206 18.739851
v -26.138990 -17.430206 -15.961893
v 8.870726 -17.430206 -15.961893
v 8.870726 -17.430206 18.739851
vn -1.0000 -0.0000 -0.0000
vn -0.0000 -0.0000 -1.0000
vn 1.0000 -0.0000 -0.0000
vn -0.0000 -0.0000 1.0000
vn -0.0000 -1.0000 -0.0000
vn -0.0000 1.0000 -0.0000
vt 0.625000 0.000000
vt 0.375000 0.250000
vt 0.375000 0.000000
vt 0.625000 0.250000
vt 0.375000 0.500000
vt 0.625000 0.500000
vt 0.375000 0.750000
vt 0.625000 0.750000
vt 0.375000 1.000000
vt 0.125000 0.750000
vt 0.125000 0.500000
vt 0.648216 0.726784
vt 0.851784 0.726784
vt 0.851784 0.523216
vt 0.875000 0.750000
vt 0.648216 0.523216
vt 0.875000 0.500000
vt 0.666555 0.541556
vt 0.666555 0.708445
vt 0.833445 0.541555
vt 0.833445 0.708445
vt 0.681034 0.693966
vt 0.818966 0.693966
vt 0.818966 0.556034
vt 0.681034 0.556034
vt 0.625000 1.000000
s 0
f 9/1/1 3/2/1 1/3/1
f 10/4/2 7/5/2 3/2/2
f 11/6/3 5/7/3 7/5/3
f 12/8/4 1/9/4 5/7/4
f 7/5/5 1/10/5 3/11/5
f 6/12/4 17/13/4 2/13/4
f 4/14/6 9/15/6 2/13/6
f 8/16/6 10/17/6 4/14/6
f 6/12/6 11/6/6 8/16/6
f 2/13/6 12/8/6 6/12/6
f 15/18/3 28/19/3 16/19/3
f 4/14/2 19/16/2 8/16/2
f 8/16/3 20/12/3 6/12/3
f 2/13/1 18/14/1 4/14/1
f 14/20/6 17/13/6 13/21/6
f 15/18/6 18/14/6 14/20/6
f 16/19/6 19/16/6 15/18/6
f 13/21/6 20/12/6 16/19/6
f 24/22/4 29/23/4 21/23/4
f 13/21/1 26/20/1 14/20/1
f 16/19/4 25/21/4 13/21/4
f 14/20/2 27/18/2 15/18/2
f 21/23/6 26/20/6 25/21/6
f 22/24/6 27/18/6 26/20/6
f 23/25/6 28/19/6 27/18/6
f 24/22/6 25/21/6 28/19/6
f 30/24/6 32/22/6 31/25/6
f 22/24/2 31/25/2 23/25/2
f 23/25/3 32/22/3 24/22/3
f 21/23/1 30/24/1 22/24/1
f 9/1/1 10/4/1 3/2/1
f 10/4/2 11/6/2 7/5/2
f 11/6/3 12/8/3 5/7/3
f 12/8/4 9/26/4 1/9/4
f 7/5/5 5/7/5 1/10/5
f 6/12/4 20/12/4 17/13/4
f 4/14/6 10/17/6 9/15/6
f 8/16/6 11/6/6 10/17/6
f 6/12/6 12/8/6 11/6/6
f 2/13/6 9/15/6 12/8/6
f 15/18/3 27/18/3 28/19/3
f 4/14/2 18/14/2 19/16/2
f 8/16/3 19/16/3 20/12/3
f 2/13/1 17/13/1 18/14/1
f 14/20/6 18/14/6 17/13/6
f 15/18/6 19/16/6 18/14/6
f 16/19/6 20/12/6 19/16/6
f 13/21/6 17/13/6 20/12/6
f 24/22/4 32/22/4 29/23/4
f 13/21/1 25/21/1 26/20/1
f 16/19/4 28/19/4 25/21/4
f 14/20/2 26/20/2 27/18/2
f 21/23/6 22/24/6 26/20/6
f 22/24/6 23/25/6 27/18/6
f 23/25/6 24/22/6 28/19/6
f 24/22/6 21/23/6 25/21/6
f 30/24/6 29/23/6 32/22/6
f 22/24/2 30/24/2 31/25/2
f 23/25/3 31/25/3 32/22/3
f 21/23/1 29/23/1 30/24/1
