# Blender 4.1.1
# www.blender.org
mtllib house_walls.mtl
o Würfel.002
v 17.894281 -73.988472 29.310282
v 17.894281 -30.482632 29.310282
v 17.894281 -73.988472 -26.532324
v 17.894281 -30.482632 -26.532324
v 18.837486 -73.988472 29.310282
v 18.837486 -30.482632 29.310282
v 18.837486 -73.988472 -26.532324
v 18.837486 -30.482632 -26.532324
v 19.287189 -73.988472 -25.139420
v 19.287189 -30.482632 -25.139420
v -36.555500 -73.988472 -25.139420
v -36.555500 -30.482632 -25.139420
v 19.287189 -73.988472 -26.082623
v 19.287189 -30.482632 -26.082623
v -36.555500 -73.988472 -26.082621
v -36.555500 -30.482632 -26.082621
v -36.105797 -73.988472 29.310282
v -36.105797 -30.482632 29.310282
v -36.105797 -73.988472 -26.532324
v -36.105797 -30.482632 -26.532324
v -35.162594 -73.988472 29.310282
v -35.162594 -30.482632 29.310282
v -35.162594 -73.988472 -26.532324
v -35.162594 -30.482632 -26.532324
v 19.287189 -73.988472 28.860579
v 19.287189 -30.482632 28.860579
v -36.555500 -73.988472 28.860580
v -36.555500 -30.482632 28.860580
v 19.287189 -73.988472 27.917377
v 19.287189 -30.482632 27.917377
v -36.555500 -73.988472 27.917377
v -36.555500 -30.482632 27.917377
v -13.845093 -73.514809 28.860580
v -13.845093 -57.145863 28.860580
v -3.423172 -57.145863 28.860579
v -3.423172 -73.514809 28.860579
v -13.845093 -57.145863 27.917377
v -13.845093 -73.514809 27.917377
v -3.423172 -73.514809 27.917377
v -3.423172 -57.145863 27.917377
v -36.105797 -65.583450 18.977596
v -36.105797 -44.545013 18.977596
v -36.105797 -44.545013 7.800363
v -36.105797 -65.583450 7.800363
v -35.162594 -44.545013 7.800363
v -35.162594 -65.583450 18.977596
v -35.162594 -44.545013 18.977596
v -35.162594 -65.583450 7.800363
v -36.105797 -65.583450 -5.022405
v -36.105797 -65.583450 -16.199638
v -36.105797 -44.545013 -5.022405
v -36.105797 -44.545013 -16.199638
v -35.162594 -44.545013 -5.022405
v -35.162594 -65.583450 -5.022405
v -35.162594 -65.583450 -16.199638
v -35.162594 -44.545013 -16.199638
v -15.045513 -44.545013 -25.139420
v -26.222752 -44.545013 -25.139420
v -26.222752 -65.583450 -25.139420
v -15.045513 -65.583450 -25.139420
v -26.222752 -65.583450 -26.082621
v -26.222752 -44.545013 -26.082621
v -15.045513 -44.545013 -26.082621
v -15.045513 -65.583450 -26.082621
v 17.894281 -44.545017 -5.022405
v 17.894281 -65.583450 -5.022405
v 17.894281 -65.583450 -16.199638
v 17.894281 -44.545017 -16.199638
v 18.837486 -44.545017 -5.022405
v 18.837486 -65.583450 -16.199638
v 18.837486 -44.545017 -16.199638
v 18.837486 -65.583450 -5.022405
v 17.894281 -44.545017 7.800363
v 17.894281 -65.583450 18.977596
v 17.894281 -44.545017 18.977596
v 17.894281 -65.583450 7.800363
v 18.837486 -65.583450 18.977596
v 18.837486 -65.583450 7.800363
v 18.837486 -44.545017 7.800363
v 18.837486 -44.545017 18.977596
v -2.416719 -44.545021 -25.139420
v -2.416719 -65.583450 -25.139420
v 8.760516 -65.583450 -25.139420
v 8.760516 -44.545021 -25.139420
v -2.416719 -65.583450 -26.082621
v 8.760516 -65.583450 -26.082623
v -2.416719 -44.545021 -26.082621
v 8.760516 -44.545021 -26.082623
v -20.283646 -41.470539 28.860580
v -26.984627 -68.431068 28.860580
v -20.283646 -68.431068 28.860580
v -20.283646 -54.113766 28.860580
v -26.984627 -41.470539 28.860580
v -26.984627 -68.431068 27.917377
v -20.283646 -68.431068 27.917377
v -26.984627 -41.470539 27.917377
v -20.283646 -41.470539 27.917377
v -20.283646 -61.311424 27.917377
v 3.015385 -68.431076 28.860579
v 9.716353 -68.431076 28.860579
v 3.015385 -60.616871 28.860579
v 3.015385 -41.470543 28.860579
v 9.716353 -41.470543 28.860579
v 3.015385 -68.431076 27.917377
v 9.716353 -68.431076 27.917377
v 3.015385 -60.119274 27.917377
v 9.716353 -41.470543 27.917377
v 3.015385 -41.470543 27.917377
vn -1.0000 -0.0000 -0.0000
vn -0.0000 -0.0000 -1.0000
vn 1.0000 -0.0000 -0.0000
vn -0.0000 -0.0000 1.0000
vn -0.0000 -1.0000 -0.0000
vn -0.0000 1.0000 -0.0000
vn -0.0000 -0.9976 0.0690
vn -0.0000 0.9963 -0.0862
vt 0.375000 0.000000
vt 0.625000 0.000000
vt 0.423298 0.046258
vt 0.544192 0.096297
vt 0.423298 0.153703
vt 0.423298 0.096297
vt 0.375000 0.250000
vt 0.544193 0.203742
vt 0.625000 0.250000
vt 0.375000 0.500000
vt 0.544193 0.546258
vt 0.423298 0.546258
vt 0.625000 0.750000
vt 0.375000 0.750000
vt 0.544192 0.703742
vt 0.423298 0.596297
vt 0.544193 0.653703
vt 0.423298 0.653703
vt 0.375000 1.000000
vt 0.125000 0.750000
vt 0.125000 0.500000
vt 0.875000 0.500000
vt 0.625000 0.500000
vt 0.544193 0.047126
vt 0.423298 0.047126
vt 0.423298 0.153703
vt 0.423298 0.097165
vt 0.544193 0.203742
vt 0.423298 0.203742
vt 0.544193 0.546258
vt 0.423298 0.546258
vt 0.544193 0.596297
vt 0.544192 0.652835
vt 0.544193 0.702874
vt 0.544193 0.046258
vt 0.423298 0.046258
vt 0.544192 0.203742
vt 0.423298 0.096297
vt 0.544192 0.153703
vt 0.423298 0.153703
vt 0.423298 0.546258
vt 0.544192 0.596297
vt 0.544193 0.653703
vt 0.544193 0.703742
vt 0.423298 0.703742
vt 0.406935 0.177153
vt 0.471784 0.148329
vt 0.489207 0.177153
vt 0.561860 0.177153
vt 0.471784 0.101671
vt 0.406935 0.072847
vt 0.451838 0.072847
vt 0.377722 0.148329
vt 0.377722 0.101671
vt 0.471784 0.648329
vt 0.406935 0.677153
vt 0.377722 0.648329
vt 0.561860 0.572847
vt 0.561859 0.707153
vt 0.471784 0.601671
vt 0.406935 0.572847
vt 0.447847 0.572847
vt 0.377722 0.601671
vt 0.375000 0.057926
vt 0.625000 0.175826
vt 0.625000 0.057926
vt 0.375000 0.692074
vt 0.625000 0.574174
vt 0.375000 0.574174
vt 0.125000 0.692074
vt 0.125000 0.574174
vt 0.875000 0.692074
vt 0.625000 0.692074
vt 0.480861 0.250000
vt 0.534059 0.250000
vt 0.534059 0.750000
vt 0.480861 0.750000
vt 0.480862 0.250000
vt 0.534059 0.250000
vt 0.534059 0.750000
vt 0.480862 0.750000
vt 0.541336 0.000000
vt 0.488139 0.250000
vt 0.541336 0.250000
vt 0.541336 0.750000
vt 0.488139 0.500000
vt 0.488139 0.750000
vt 0.463943 0.250000
vt 0.517141 0.250000
vt 0.517141 0.750000
vt 0.463943 0.750000
vt 0.463943 0.250000
vt 0.517141 0.250000
vt 0.517141 0.750000
vt 0.463943 0.750000
vt 0.541336 0.000000
vt 0.488138 0.250000
vt 0.541336 0.250000
vt 0.541336 0.500000
vt 0.488138 0.750000
vt 0.541336 0.750000
vt 0.507762 0.000000
vt 0.547926 0.000000
vt 0.375000 0.382762
vt 0.375000 0.316019
vt 0.507762 0.500000
vt 0.547926 0.500000
vt 0.507762 0.000000
vt 0.547926 0.000000
vt 0.507762 0.500000
vt 0.547926 0.500000
vt 0.375000 0.927540
vt 0.375000 0.922926
vt 0.423298 0.203742
vt 0.544193 0.153703
vt 0.544192 0.046258
vt 0.544193 0.596297
vt 0.625000 1.000000
vt 0.875000 0.750000
vt 0.544192 0.097165
vt 0.544193 0.153703
vt 0.423298 0.652835
vt 0.423298 0.702874
vt 0.423298 0.596297
vt 0.544193 0.096297
vt 0.423298 0.203742
vt 0.544192 0.546258
vt 0.561859 0.072847
vt 0.561860 0.042847
vt 0.406935 0.042847
vt 0.406935 0.207153
vt 0.561860 0.207153
vt 0.454697 0.677153
vt 0.561859 0.677153
vt 0.406935 0.707153
vt 0.406935 0.542847
vt 0.561860 0.542848
vt 0.375000 0.175826
vt 0.875000 0.574174
vt 0.488139 0.000000
vt 0.541336 0.500000
vt 0.488138 0.000000
vt 0.488138 0.500000
s 0
f 1/1/1 2/2/1 74/3/1
f 73/4/1 66/5/1 76/6/1
f 3/7/1 68/8/1 4/9/1
f 4/9/2 7/10/2 3/7/2
f 7/10/3 71/11/3 70/12/3
f 6/13/3 5/14/3 80/15/3
f 72/16/3 79/17/3 78/18/3
f 6/13/4 1/19/4 5/14/4
f 7/10/5 1/20/5 3/21/5
f 4/22/6 6/13/6 8/23/6
f 9/1/4 84/24/4 83/25/4
f 60/26/4 9/1/4 82/27/4
f 58/28/4 11/7/4 59/29/4
f 12/9/1 15/10/1 11/7/1
f 15/10/2 62/30/2 61/31/2
f 63/32/2 14/13/2 87/33/2
f 13/14/2 88/34/2 14/13/2
f 14/13/3 9/19/3 13/14/3
f 15/10/5 9/20/5 11/21/5
f 12/22/6 14/13/6 16/23/6
f 17/1/1 42/35/1 41/36/1
f 20/9/1 19/7/1 52/37/1
f 44/38/1 51/39/1 49/40/1
f 20/9/2 23/10/2 19/7/2
f 23/10/3 24/23/3 55/41/3
f 48/18/3 53/42/3 45/43/3
f 47/44/3 21/14/3 46/45/3
f 22/13/4 17/19/4 21/14/4
f 23/10/5 17/20/5 19/21/5
f 20/22/6 22/13/6 24/23/6
f 91/46/4 34/47/4 92/48/4
f 89/49/4 26/2/4 28/9/4
f 35/50/4 99/51/4 101/52/4
f 33/53/4 25/1/4 36/54/4
f 28/9/1 31/10/1 27/7/1
f 40/55/2 104/56/2 39/57/2
f 97/58/2 32/23/2 107/59/2
f 37/60/2 95/61/2 98/62/2
f 29/14/2 38/63/2 39/57/2
f 30/13/3 25/19/3 29/14/3
f 31/10/5 25/20/5 27/21/5
f 28/22/6 30/13/6 32/23/6
f 33/64/3 37/65/3 34/66/3
f 36/67/1 40/68/1 39/69/1
f 33/70/6 39/69/6 38/71/6
f 34/72/5 40/68/5 35/73/5
f 43/7/4 48/1/4 45/7/4
f 45/74/5 42/75/5 43/75/5
f 47/10/2 41/14/2 42/10/2
f 41/76/6 48/77/6 44/76/6
f 50/1/4 56/7/4 52/7/4
f 56/78/5 51/79/5 52/79/5
f 53/10/2 49/14/2 51/10/2
f 49/80/6 55/81/6 50/80/6
f 59/82/3 62/83/3 58/84/3
f 58/7/5 63/10/5 57/10/5
f 60/85/1 63/86/1 64/87/1
f 59/19/6 64/14/6 61/19/6
f 67/1/4 71/7/4 68/7/4
f 71/88/5 65/89/5 68/89/5
f 65/10/2 72/14/2 66/14/2
f 67/90/6 72/91/6 70/91/6
f 76/1/4 79/7/4 73/7/4
f 79/92/5 75/93/5 73/93/5
f 75/10/2 77/14/2 74/14/2
f 74/94/6 78/95/6 76/94/6
f 82/96/3 87/97/3 81/98/3
f 81/7/5 88/10/5 84/10/5
f 84/99/1 86/100/1 83/101/1
f 82/19/6 86/14/6 85/19/6
f 90/102/6 95/103/6 94/103/6
f 92/104/1 97/10/1 98/105/1
f 93/106/5 97/107/5 89/106/5
f 93/14/3 94/19/3 96/14/3
f 99/108/6 105/109/6 104/109/6
f 100/7/1 107/10/1 105/7/1
f 102/110/5 107/111/5 103/110/5
f 101/112/3 104/19/3 106/113/3
f 66/5/1 67/114/1 3/7/1
f 2/2/1 4/9/1 68/8/1
f 65/115/1 73/4/1 75/116/1
f 2/2/1 68/8/1 65/115/1
f 66/5/1 3/7/1 1/1/1
f 76/6/1 66/5/1 1/1/1
f 2/2/1 65/115/1 75/116/1
f 74/3/1 76/6/1 1/1/1
f 2/2/1 75/116/1 74/3/1
f 73/4/1 65/115/1 66/5/1
f 3/7/1 67/114/1 68/8/1
f 4/9/2 8/23/2 7/10/2
f 7/10/3 8/23/3 71/11/3
f 69/117/3 71/11/3 8/23/3
f 5/14/3 7/10/3 70/12/3
f 70/12/1 72/16/1 78/18/1
f 5/14/3 70/12/3 78/18/3
f 69/117/3 8/23/3 6/13/3
f 80/15/3 79/17/3 69/117/3
f 5/14/3 78/18/3 77/45/3
f 80/15/3 69/117/3 6/13/3
f 5/14/3 77/45/3 80/15/3
f 72/16/3 69/117/3 79/17/3
f 6/13/4 2/118/4 1/19/4
f 7/10/5 5/14/5 1/20/5
f 4/22/6 2/119/6 6/13/6
f 9/1/4 10/2/4 84/24/4
f 81/120/4 84/24/4 10/2/4
f 10/2/4 12/9/4 58/28/4
f 10/2/4 58/28/4 57/121/4
f 81/120/4 10/2/4 57/121/4
f 60/26/4 59/29/4 11/7/4
f 81/120/4 57/121/4 60/26/4
f 9/1/4 83/25/4 82/27/4
f 82/27/4 81/120/4 60/26/4
f 60/26/4 11/7/4 9/1/4
f 58/28/4 12/9/4 11/7/4
f 12/9/1 16/23/1 15/10/1
f 15/10/2 16/23/2 62/30/2
f 85/122/2 86/123/2 13/14/2
f 13/14/2 15/10/2 61/31/2
f 13/14/2 61/31/2 64/124/2
f 85/122/2 13/14/2 64/124/2
f 63/32/2 62/30/2 16/23/2
f 85/122/2 64/124/2 63/32/2
f 14/13/2 88/34/2 87/33/2
f 87/33/2 85/122/2 63/32/2
f 63/32/2 16/23/2 14/13/2
f 13/14/2 86/123/2 88/34/2
f 14/13/3 10/118/3 9/19/3
f 15/10/5 13/14/5 9/20/5
f 12/22/6 10/119/6 14/13/6
f 17/1/1 18/2/1 42/35/1
f 43/125/1 42/35/1 18/2/1
f 19/7/1 17/1/1 41/36/1
f 41/36/1 44/38/1 49/40/1
f 19/7/1 41/36/1 49/40/1
f 43/125/1 18/2/1 20/9/1
f 52/37/1 51/39/1 43/125/1
f 19/7/1 49/40/1 50/126/1
f 52/37/1 43/125/1 20/9/1
f 19/7/1 50/126/1 52/37/1
f 44/38/1 43/125/1 51/39/1
f 20/9/2 24/23/2 23/10/2
f 48/18/3 46/45/3 21/14/3
f 24/23/3 22/13/3 47/44/3
f 45/43/3 53/42/3 56/127/3
f 24/23/3 47/44/3 45/43/3
f 48/18/3 21/14/3 23/10/3
f 54/124/3 48/18/3 23/10/3
f 24/23/3 45/43/3 56/127/3
f 55/41/3 54/124/3 23/10/3
f 24/23/3 56/127/3 55/41/3
f 48/18/3 54/124/3 53/42/3
f 47/44/3 22/13/3 21/14/3
f 22/13/4 18/118/4 17/19/4
f 23/10/5 21/14/5 17/20/5
f 20/22/6 18/119/6 22/13/6
f 91/46/4 33/53/4 34/47/4
f 89/49/4 92/48/4 34/47/4
f 35/50/4 101/52/4 102/128/4
f 89/49/4 34/47/4 35/50/4
f 89/49/4 35/50/4 102/128/4
f 89/49/7 102/128/7 103/129/7
f 100/130/4 99/51/4 36/54/4
f 27/7/4 33/53/4 91/46/4
f 27/7/4 91/46/4 90/131/4
f 100/130/4 36/54/4 25/1/4
f 103/129/4 100/130/4 25/1/4
f 28/9/4 27/7/4 90/131/4
f 28/9/4 90/131/4 93/132/4
f 103/129/4 25/1/4 26/2/4
f 28/9/4 93/132/4 89/49/4
f 89/49/4 103/129/4 26/2/4
f 35/50/4 36/54/4 99/51/4
f 33/53/4 27/7/4 25/1/4
f 28/9/1 32/23/1 31/10/1
f 40/55/2 106/133/2 104/56/2
f 37/60/2 98/62/2 97/58/2
f 40/55/2 37/60/2 97/58/2
f 108/134/2 106/133/2 40/55/2
f 108/134/2 40/55/2 97/58/2
f 107/59/8 108/134/8 97/58/8
f 39/57/2 104/56/2 105/135/2
f 29/14/2 39/57/2 105/135/2
f 95/61/2 38/63/2 31/10/2
f 94/136/2 95/61/2 31/10/2
f 30/13/2 29/14/2 105/135/2
f 30/13/2 105/135/2 107/59/2
f 94/136/2 31/10/2 32/23/2
f 96/137/2 94/136/2 32/23/2
f 32/23/2 30/13/2 107/59/2
f 97/58/2 96/137/2 32/23/2
f 37/60/2 38/63/2 95/61/2
f 29/14/2 31/10/2 38/63/2
f 30/13/3 26/118/3 25/19/3
f 31/10/5 29/14/5 25/20/5
f 28/22/6 26/119/6 30/13/6
f 33/64/3 38/138/3 37/65/3
f 36/67/1 35/73/1 40/68/1
f 33/70/6 36/67/6 39/69/6
f 34/72/5 37/139/5 40/68/5
f 43/7/4 44/1/4 48/1/4
f 45/74/5 47/74/5 42/75/5
f 47/10/2 46/14/2 41/14/2
f 41/76/6 46/77/6 48/77/6
f 50/1/4 55/1/4 56/7/4
f 56/78/5 53/78/5 51/79/5
f 53/10/2 54/14/2 49/14/2
f 49/80/6 54/81/6 55/81/6
f 59/82/3 61/140/3 62/83/3
f 58/7/5 62/7/5 63/10/5
f 60/85/1 57/141/1 63/86/1
f 59/19/6 60/14/6 64/14/6
f 67/1/4 70/1/4 71/7/4
f 71/88/5 69/88/5 65/89/5
f 65/10/2 69/10/2 72/14/2
f 67/90/6 66/90/6 72/91/6
f 76/1/4 78/1/4 79/7/4
f 79/92/5 80/92/5 75/93/5
f 75/10/2 80/10/2 77/14/2
f 74/94/6 77/95/6 78/95/6
f 82/96/3 85/142/3 87/97/3
f 81/7/5 87/7/5 88/10/5
f 84/99/1 88/143/1 86/100/1
f 82/19/6 83/14/6 86/14/6
f 90/102/6 91/102/6 95/103/6
f 98/105/1 95/7/1 91/7/1
f 92/104/1 89/10/1 97/10/1
f 98/105/1 91/7/1 92/104/1
f 93/106/5 96/107/5 97/107/5
f 93/14/3 90/19/3 94/19/3
f 99/108/6 100/108/6 105/109/6
f 100/7/1 103/10/1 107/10/1
f 102/110/5 108/111/5 107/111/5
f 108/14/3 102/14/3 101/112/3
f 101/112/3 99/19/3 104/19/3
f 106/113/3 108/14/3 101/112/3
